<svg width="30" height="30" viewBox="0 0 30 30" fill="none" xmlns="http://www.w3.org/2000/svg">
<path d="M13.2499 15.8875C13.1327 15.7713 13.0397 15.6331 12.9763 15.4807C12.9128 15.3284 12.8801 15.165 12.8801 15C12.8801 14.835 12.9128 14.6716 12.9763 14.5193C13.0397 14.367 13.1327 14.2287 13.2499 14.1125L18.9874 8.38751C19.1045 8.2713 19.1975 8.13305 19.261 7.98073C19.3244 7.8284 19.3571 7.66502 19.3571 7.50001C19.3571 7.33499 19.3244 7.17161 19.261 7.01929C19.1975 6.86696 19.1045 6.72871 18.9874 6.61251C18.7532 6.37969 18.4364 6.24902 18.1061 6.24902C17.7759 6.24902 17.4591 6.37969 17.2249 6.61251L11.4874 12.35C10.7851 13.0531 10.3907 14.0063 10.3907 15C10.3907 15.9938 10.7851 16.9469 11.4874 17.65L17.2249 23.3875C17.4577 23.6184 17.7719 23.7486 18.0999 23.75C18.2644 23.751 18.4275 23.7194 18.5798 23.6572C18.7321 23.595 18.8706 23.5034 18.9874 23.3875C19.1045 23.2713 19.1975 23.1331 19.261 22.9807C19.3244 22.8284 19.3571 22.665 19.3571 22.5C19.3571 22.335 19.3244 22.1716 19.261 22.0193C19.1975 21.867 19.1045 21.7287 18.9874 21.6125L13.2499 15.8875Z" fill="#0C1322"/>
</svg>
