<svg width="18" height="18" viewBox="0 0 18 18" fill="none" xmlns="http://www.w3.org/2000/svg">
<path d="M10.1437 0.877626C9.83266 1.51972 9.91027 2.27992 10.2289 2.61409C10.5475 2.94825 11.3109 2.70686 11.6221 2.06477C11.9332 1.42273 11.795 0.504715 11.4764 0.170551C10.9206 -0.412461 10.2446 0.66945 10.1437 0.877626ZM9.1466 2.52979C8.35791 2.8808 7.7012 3.34685 7.18578 3.93907C6.46852 4.76317 6.00718 5.81626 5.79591 7.23588C5.77613 7.36897 5.8024 7.52342 5.94891 7.77786C6.09541 8.0323 6.35023 8.32513 6.65345 8.59997C7.25988 9.14959 8.05034 9.63965 8.59099 9.97544L8.8653 10.1458L8.80759 10.5804C8.60515 12.1055 8.16452 12.9463 7.64381 13.4225C7.29713 13.7396 6.94685 13.9211 6.60425 14.1341L7.38575 15.0121C8.32773 14.3604 9.84662 13.2001 10.4051 10.1192C10.3318 9.75709 10.1856 9.41607 9.97831 9.06861C9.7747 8.72717 9.52004 8.38692 9.26195 8.02569L8.53319 7.00557L9.53122 7.09028C11.3012 7.24058 11.7132 7.27722 13.0925 6.38706C13.2316 6.16372 13.2315 6.06601 13.2144 5.90374C13.2031 5.79767 13.1621 5.64851 13.1128 5.47812C12.6361 5.56476 12.0741 5.69045 11.4857 5.765C10.7931 5.85272 10.0923 5.87143 9.49558 5.57006L9.15851 5.39979C9.26183 4.76226 9.46523 4.21252 9.75259 3.71742C9.7394 3.70448 9.72635 3.69124 9.71344 3.67771C9.434 3.38458 9.24536 2.98074 9.1466 2.52979ZM13.5825 4.13978C13.6735 4.47413 13.7675 4.82231 13.8437 5.18114C13.9463 5.665 14.0142 6.19049 13.9082 6.72495C13.8657 6.93974 13.785 7.13829 13.6843 7.32415C14.732 7.87377 15.5667 8.61574 16.2315 9.35205C16.1626 8.56989 15.8739 7.69483 15.4016 6.79047C14.9265 5.88088 14.2819 4.97206 13.5825 4.13978ZM0.157923 6.45486C0.56934 7.41476 0.965177 8.29054 1.59546 8.98173C2.23317 9.68116 3.13563 10.2329 4.58753 10.4733L3.52533 12.0106C3.15948 11.6147 2.70863 11.3817 2.21973 11.3817C0.989513 11.3817 0 12.8569 0 14.6909C0 16.5248 0.989513 18 2.21973 18C3.44998 18 4.43945 16.5248 4.43945 14.6909C4.43945 13.9785 4.29021 13.3202 4.03546 12.7815L4.66397 11.8721C4.80268 12.4626 5.03587 13.1467 5.41448 13.8411L5.72677 13.5668C6.19134 13.1588 6.62136 12.9535 6.96699 12.7257L5.00205 11.3827L5.58669 10.5365H5.58677C5.93019 10.2912 6.27588 10.0531 6.62374 9.82207C5.14912 8.63349 4.67753 7.75981 4.35409 7.14232C2.81304 7.4594 1.50243 6.95803 0.157923 6.45486ZM12.9113 8.07255C12.338 8.06443 11.5471 8.30919 10.703 8.67608C10.8986 9.05766 11.0608 9.48953 11.1383 9.99391C11.1632 10.0881 11.1523 10.1532 11.1366 10.2466C10.8977 11.6647 10.4661 12.7501 9.9706 13.587L12.4452 15.2784C12.3747 13.9539 12.652 12.8408 13.181 12.0191L13.895 12.9379C13.6829 13.4455 13.5605 14.046 13.5605 14.6909C13.5605 16.5248 14.55 18 15.7803 18C17.0105 18 18 16.5248 18 14.6909C18 12.8569 17.0105 11.3817 15.7803 11.3817C15.246 11.3817 14.7571 11.6599 14.375 12.125L13.7506 11.3215C14.3197 10.7603 15.0235 10.3799 15.7969 10.1074C15.6334 9.89716 15.4468 9.66792 15.2188 9.42606C14.5727 8.74076 13.7146 8.08393 12.9113 8.07255ZM7.48161 10.4436C7.12312 10.6731 6.76691 10.9105 6.41311 11.1557L7.65652 12.0054C7.80585 11.7339 7.93003 11.3617 8.0296 10.7941C7.85847 10.6873 7.67347 10.5707 7.48161 10.4436ZM2.21977 12.7655C2.43659 12.7655 2.64991 12.8469 2.84008 13.0022L1.89811 14.3654L2.40421 15.1423L3.35344 13.7686C3.45698 14.0515 3.51124 14.3686 3.51124 14.6909C3.51124 15.7542 2.93302 16.6162 2.21977 16.6162C1.50651 16.6162 0.928289 15.7542 0.928289 14.6909C0.928289 13.6275 1.50651 12.7655 2.21977 12.7655ZM15.7803 12.7655C16.4935 12.7655 17.0718 13.6275 17.0718 14.6909C17.0718 15.7542 16.4935 16.6162 15.7803 16.6162C15.067 16.6162 14.4888 15.7542 14.4888 14.6909C14.4888 14.4046 14.5316 14.1219 14.6141 13.8634L15.6493 15.1957L16.124 14.3759L15.0983 13.0558C15.303 12.866 15.5393 12.7655 15.7803 12.7655L15.7803 12.7655ZM9.41563 14.3992C9.142 14.7477 8.86357 15.037 8.59853 15.2789L11.6553 15.9299L9.41563 14.3992Z" fill="white"/>
</svg>
